<svg width="26" height="24" viewBox="0 0 26 24" fill="none" xmlns="http://www.w3.org/2000/svg">
<path d="M0 1.719C0 0.7695 0.85475 0 1.90937 0H24.0906C25.1452 0 26 0.7695 26 1.719V22.281C26 23.2305 25.1452 24 24.0906 24H1.90937C0.85475 24 0 23.2305 0 22.281V1.719ZM8.03237 20.091V9.2535H4.13075V20.091H8.03237ZM6.08238 7.773C7.4425 7.773 8.28912 6.942 8.28912 5.901C8.26475 4.8375 7.44413 4.029 6.10838 4.029C4.77263 4.029 3.9 4.839 3.9 5.901C3.9 6.942 4.74663 7.773 6.05637 7.773H6.08238V7.773ZM14.0579 20.091V14.0385C14.0579 13.7145 14.0839 13.3905 14.1879 13.1595C14.469 12.513 15.1109 11.8425 16.1899 11.8425C17.602 11.8425 18.1659 12.8355 18.1659 14.2935V20.091H22.0675V13.875C22.0675 10.545 20.1435 8.997 17.576 8.997C15.5057 8.997 14.5779 10.047 14.0579 10.7865V10.824H14.0319C14.0405 10.8115 14.0492 10.799 14.0579 10.7865V9.2535H10.1579C10.2066 10.2705 10.1579 20.091 10.1579 20.091H14.0579Z" fill="black"/>
</svg>
